<svg width="172" height="66" viewBox="0 0 172 66" fill="none" xmlns="http://www.w3.org/2000/svg">
<rect width="172" height="66" fill="white"/>
<g filter="url(#filter0_d_857_111)">
<rect x="17" y="6" width="138" height="48" rx="24" fill="#B65A0F"/>
</g>
<path d="M63.6628 27.5078C63.6031 26.9496 63.3517 26.5149 62.9085 26.2038C62.4696 25.8928 61.8986 25.7372 61.1955 25.7372C60.7012 25.7372 60.2772 25.8118 59.9235 25.9609C59.5698 26.1101 59.2992 26.3125 59.1117 26.5682C58.9242 26.8239 58.8283 27.1158 58.824 27.4439C58.824 27.7166 58.8858 27.9531 59.0094 28.1534C59.1372 28.3537 59.3098 28.5241 59.5272 28.6648C59.7445 28.8011 59.9852 28.9162 60.2495 29.0099C60.5137 29.1037 60.78 29.1825 61.0485 29.2464L62.2757 29.5533C62.77 29.6683 63.2452 29.8239 63.7012 30.0199C64.1614 30.2159 64.5726 30.4631 64.9348 30.7614C65.3013 31.0597 65.5911 31.4197 65.8041 31.8416C66.0172 32.2635 66.1237 32.7578 66.1237 33.3246C66.1237 34.0916 65.9277 34.767 65.5357 35.3509C65.1436 35.9304 64.5769 36.3842 63.8354 36.7124C63.0982 37.0362 62.2054 37.1982 61.1571 37.1982C60.1387 37.1982 59.2544 37.0405 58.5044 36.7251C57.7587 36.4098 57.1749 35.9496 56.753 35.3445C56.3354 34.7393 56.1095 34.0021 56.0754 33.1328H58.4085C58.4426 33.5888 58.5833 33.968 58.8304 34.2706C59.0776 34.5732 59.3993 34.799 59.7956 34.9482C60.1962 35.0973 60.6436 35.1719 61.1379 35.1719C61.6536 35.1719 62.1053 35.0952 62.4931 34.9418C62.8851 34.7841 63.1919 34.5668 63.4135 34.2898C63.6351 34.0085 63.748 33.6804 63.7523 33.3054C63.748 32.9645 63.6479 32.6832 63.4519 32.4616C63.2558 32.2358 62.981 32.0483 62.6273 31.8991C62.2779 31.7457 61.8688 31.6094 61.4 31.4901L59.9107 31.1065C58.8325 30.8295 57.9803 30.4098 57.3539 29.8473C56.7317 29.2805 56.4206 28.5284 56.4206 27.5909C56.4206 26.8196 56.6294 26.1442 57.047 25.5646C57.4689 24.9851 58.0421 24.5355 58.7665 24.2159C59.4909 23.892 60.3112 23.7301 61.2274 23.7301C62.1564 23.7301 62.9703 23.892 63.6692 24.2159C64.3723 24.5355 64.9242 24.9808 65.3247 25.5518C65.7253 26.1186 65.932 26.7706 65.9448 27.5078H63.6628ZM68.3826 25.897V23.9091H78.8272V25.897H74.7811V37H72.4288V25.897H68.3826ZM81.6598 37H79.1286L83.7372 23.9091H86.6648L91.2798 37H88.7486L85.2521 26.5938H85.1499L81.6598 37ZM81.7429 31.8672H88.6463V33.772H81.7429V31.8672ZM93.7241 37V23.9091H98.6332C99.6389 23.9091 100.483 24.0838 101.164 24.4332C101.851 24.7827 102.368 25.2727 102.718 25.9034C103.071 26.5298 103.248 27.2607 103.248 28.0959C103.248 28.9354 103.069 29.6641 102.711 30.282C102.358 30.8956 101.836 31.3707 101.145 31.7074C100.455 32.0398 99.6069 32.206 98.6012 32.206H95.1048V30.2372H98.2816C98.8697 30.2372 99.3512 30.1562 99.7262 29.9943C100.101 29.8281 100.378 29.5874 100.557 29.272C100.74 28.9524 100.832 28.5604 100.832 28.0959C100.832 27.6314 100.74 27.2351 100.557 26.907C100.374 26.5746 100.095 26.3232 99.7198 26.1527C99.3448 25.978 98.8612 25.8906 98.2688 25.8906H96.0955V37H93.7241ZM100.487 31.0682L103.728 37H101.081L97.8981 31.0682H100.487ZM105.576 25.897V23.9091H116.02V25.897H111.974V37H109.622V25.897H105.576Z" fill="white"/>
<defs>
<filter id="filter0_d_857_111" x="16" y="6" width="140" height="53" filterUnits="userSpaceOnUse" color-interpolation-filters="sRGB">
<feFlood flood-opacity="0" result="BackgroundImageFix"/>
<feColorMatrix in="SourceAlpha" type="matrix" values="0 0 0 0 0 0 0 0 0 0 0 0 0 0 0 0 0 0 127 0" result="hardAlpha"/>
<feMorphology radius="1" operator="dilate" in="SourceAlpha" result="effect1_dropShadow_857_111"/>
<feOffset dy="4"/>
<feComposite in2="hardAlpha" operator="out"/>
<feColorMatrix type="matrix" values="0 0 0 0 0.552077 0 0 0 0 0.272304 0 0 0 0 0.0355727 0 0 0 1 0"/>
<feBlend mode="normal" in2="BackgroundImageFix" result="effect1_dropShadow_857_111"/>
<feBlend mode="normal" in="SourceGraphic" in2="effect1_dropShadow_857_111" result="shape"/>
</filter>
</defs>
</svg>
